<?xml version="1.0" encoding="UTF-8" standalone="no"?>
<!-- Created with Inkscape (http://www.inkscape.org/) -->

<svg
   width="32"
   height="32"
   viewBox="0 0 32 32"
   version="1.1"
   id="svg1"
   inkscape:version="1.4.2 (ebf0e940d0, 2025-05-08)"
   sodipodi:docname="icon.svg"
   xmlns:inkscape="http://www.inkscape.org/namespaces/inkscape"
   xmlns:sodipodi="http://sodipodi.sourceforge.net/DTD/sodipodi-0.dtd"
   xmlns="http://www.w3.org/2000/svg"
   xmlns:svg="http://www.w3.org/2000/svg">
  <sodipodi:namedview
     id="namedview1"
     pagecolor="#ffffff"
     bordercolor="#000000"
     borderopacity="0.25"
     inkscape:showpageshadow="2"
     inkscape:pageopacity="0.0"
     inkscape:pagecheckerboard="0"
     inkscape:deskcolor="#d1d1d1"
     inkscape:document-units="px"
     inkscape:zoom="25.875"
     inkscape:cx="16.908213"
     inkscape:cy="15.497585"
     inkscape:window-width="2560"
     inkscape:window-height="1365"
     inkscape:window-x="1920"
     inkscape:window-y="0"
     inkscape:window-maximized="1"
     inkscape:current-layer="layer1" />
  <defs
     id="defs1" />
  <g
     inkscape:label="图层 1"
     inkscape:groupmode="layer"
     id="layer1">
    <path
       id="rect1"
       style="opacity:0.6;fill:#ff6fb4;stroke-width:8.53907;stroke-dasharray:34.1562, 34.1562;fill-opacity:1"
       d="M 22.894531 3.9335938 C 22.275441 3.9493727 21.241193 5.7958062 20.945312 6.3398438 C 20.715029 6.7632687 20.065688 7.9892182 19.941406 8.7617188 L 12.439453 8.7617188 C 12.311789 8.0024135 11.55932 6.7402044 11.298828 6.3144531 C 10.975618 5.7861946 9.8476061 3.9939865 9.2285156 4.0097656 C 8.6094252 4.0255447 7.5771301 5.8719781 7.28125 6.4160156 C 7.0581397 6.8262507 6.4402865 7.9909095 6.2890625 8.765625 C 4.4829764 8.8449228 3.0527344 10.326028 3.0527344 12.152344 L 3.0527344 24.320312 C 3.0527344 26.197786 4.5639326 27.710938 6.4414062 27.710938 L 26.078125 27.710938 C 27.955599 27.710937 29.466797 26.197787 29.466797 24.320312 L 29.466797 12.152344 C 29.466797 10.288042 27.976334 8.7846752 26.117188 8.7636719 C 26.031345 8.0159051 25.234361 6.6768296 24.964844 6.2363281 C 24.641633 5.7080696 23.513622 3.9178146 22.894531 3.9335938 z M 16.269531 9.8515625 C 18.990711 9.8186405 21.349946 11.592065 14.910156 15.056641 C 15.454208 15.505723 16.118268 15.985575 16.917969 16.494141 C 17.717667 17.002702 18.430943 17.40086 19.068359 17.703125 C 19.719051 6.0210702 26.001185 16.570476 22.833984 18.265625 C 25.844541 20.225533 18.683977 30.200753 19.035156 18.505859 C 18.374214 18.752481 17.627389 19.089064 16.787109 19.527344 C 15.94683 19.965623 15.244542 20.386219 14.664062 20.787109 C 24.455676 27.191652 12.177408 27.354122 12.292969 23.763672 C 9.0903599 25.390935 4.031894 14.203897 13.984375 20.355469 C 14.101267 19.659765 14.182086 18.843327 14.222656 17.896484 C 14.263226 16.949639 14.252263 16.13089 14.195312 15.427734 C 3.753012 20.705246 9.7510938 9.9914181 12.802734 11.886719 C 12.874754 10.54153 14.636822 9.8713225 16.269531 9.8515625 z M 14.195312 15.427734 C 14.312655 15.36843 14.433165 15.309474 14.554688 15.246094 C 14.67621 15.182711 14.794371 15.118931 14.910156 15.056641 C 14.578247 14.782668 14.291395 14.519544 14.044922 14.267578 C 14.110493 14.613894 14.160573 14.998764 14.195312 15.427734 z M 13.984375 20.355469 C 13.913065 20.779894 13.829345 21.158613 13.734375 21.498047 C 14.0015 21.268094 14.309931 21.031676 14.664062 20.787109 C 14.554031 20.715138 14.439873 20.641919 14.324219 20.568359 C 14.208566 20.494811 14.09621 20.424589 13.984375 20.355469 z M 19.035156 18.505859 C 19.438371 18.355406 19.808948 18.23786 20.150391 18.150391 C 19.817685 18.034031 19.457224 17.887523 19.068359 17.703125 C 19.06105 17.834396 19.054728 17.968537 19.048828 18.105469 C 19.042988 18.242402 19.039156 18.374441 19.035156 18.505859 z " />
  </g>
</svg>
